<svg width="102" height="26" viewBox="0 0 102 26" fill="none" xmlns="http://www.w3.org/2000/svg">
<path d="M98.3779 12.952C98.3779 12.952 98.3779 12.9722 98.3779 12.9823C98.3779 14.2144 98.1604 15.3909 97.7355 16.5069C97.3055 17.6228 96.6832 18.6226 95.8688 19.5063C95.0543 20.39 94.0678 21.0868 92.8993 21.5968C91.7358 22.1068 90.4306 22.3643 88.9838 22.3643C87.537 22.3643 86.2318 22.1068 85.0683 21.5968C83.9048 21.0868 82.9132 20.39 82.0988 19.5063C81.2843 18.6226 80.6621 17.6228 80.2321 16.5069C79.8021 15.3909 79.5896 14.2144 79.5896 12.9823C79.5896 11.6846 79.8021 10.4727 80.2321 9.34665C80.6621 8.22061 81.2843 7.22585 82.0988 6.36239C82.9132 5.49892 83.8997 4.82733 85.0683 4.33753C86.2318 3.84772 87.537 3.60535 88.9838 3.60535C89.0394 3.60535 89.09 3.60535 89.1457 3.60535V0.0706787C89.1457 0.0706787 89.1102 0.0706787 89.09 0.0706787C86.8996 0.0706787 85.0025 0.439294 83.3989 1.17652C81.7902 1.91376 80.4547 2.89336 79.3822 4.1103C78.3098 5.32723 77.5155 6.67546 76.9894 8.14992C76.4633 9.62438 76.2053 11.0887 76.2053 12.538V13.2752C76.2053 14.6133 76.4633 16.012 76.9743 17.4612C77.4852 18.9155 78.2693 20.2738 79.3165 21.5514C80.3636 22.8238 81.6991 23.8539 83.318 24.6316C84.9368 25.4142 86.8642 25.8031 89.0951 25.8031C91.326 25.8031 93.2534 25.4092 94.8722 24.6316C96.491 23.8489 97.8215 22.8238 98.8737 21.5514C99.9208 20.2789 100.705 18.9155 101.216 17.4612C101.727 16.012 101.985 14.6133 101.985 13.2752V12.9571H98.383L98.3779 12.952Z" fill="#201E22"/>
<path d="M3.47032 0H0V25.7526H3.47032H14.2404V22.637H3.47032V0Z" fill="#201E22"/>
<path d="M20.4779 7.04919H17.0784V25.7526H20.4779V7.04919Z" fill="#201E22"/>
<path d="M20.4779 1.97937H17.0784V5.37265H20.4779V1.97937Z" fill="#201E22"/>
<path d="M36.6812 7.04919L31.9715 23.0865H31.2126L25.8048 7.04919H22.2637L28.7085 25.7526H29.5584H31.1924H32.1131H33.6712H34.4148L40.0149 7.04919H36.6812Z" fill="#201E22"/>
<path d="M53.4055 7.99844C52.1155 7.14508 50.4815 6.91785 48.4934 6.91785C46.9657 6.91785 45.6352 6.98854 44.5071 7.52379C43.379 8.05904 42.4482 8.77102 41.7197 9.66984C40.9913 10.5687 40.4449 11.5735 40.0959 12.6844C39.7418 13.7953 39.5647 14.9415 39.5647 16.1231V16.7341C39.5647 17.8905 39.7418 19.0266 40.0959 20.1375C40.45 21.2484 40.9913 22.2532 41.7197 23.1521C42.4482 24.0509 43.3992 24.7679 44.5577 25.3133C45.7212 25.8586 47.1023 26 48.7008 26C50.1375 26 51.4275 25.894 52.5657 25.4143C53.704 24.9396 54.655 24.2478 55.4088 23.3389C56.1625 22.43 56.6633 21.3544 56.9163 20.1022H53.8355C53.6534 20.9404 53.1121 21.6776 52.2116 22.3138C51.3112 22.9501 50.1426 23.2682 48.7059 23.2682C47.2692 23.2682 46.2069 22.9652 45.3165 22.3643C44.4262 21.7634 43.7685 20.9454 43.3487 19.9153C42.9996 19.067 42.7973 18.1278 42.7365 17.1027H57.2249V15.5727C57.2249 14.0528 56.9112 12.6238 56.2839 11.2806C55.6566 9.94251 54.6955 8.84676 53.4106 7.9934L53.4055 7.99844ZM45.2609 10.4677C46.1158 9.87687 47.1933 9.584 48.4934 9.584C49.7935 9.584 50.785 9.84657 51.6096 10.3667C52.4292 10.8868 53.0463 11.619 53.4561 12.5632C53.6938 13.1136 53.8658 13.7246 53.967 14.3962H42.8984C43.0047 13.8609 43.1514 13.356 43.3436 12.8864C43.7635 11.8664 44.4059 11.0585 45.2609 10.4677Z" fill="#201E22"/>
<path d="M63.3863 14.5124H73.7973V11.4019H63.3863V3.53977H74.8647V0.0354004H63.3863H62.6781H59.916V25.7526H62.6781H75.2188V22.3644H63.3863V14.5124Z" fill="#201E22"/>
<path d="M102 0.0858154H94.9785V7.09456H102V0.0858154Z" fill="#201E22"/>
<path d="M99.3543 2.82776H92.3328V9.8365H99.3543V2.82776Z" fill="#03A14F"/>
</svg>
